<svg width="268" height="68" viewBox="0 0 268 68" fill="none" xmlns="http://www.w3.org/2000/svg">
<path d="M47.12 24.464C50.064 27.408 51.664 31.248 51.664 35.344C51.664 39.44 50.064 43.28 47.12 46.224C44.24 49.104 40.4 50.64 36.304 50.64C32.656 50.64 29.2 48.912 26.448 46.608V66.768H20.944V20.688H26.448V24.08C29.2 21.776 32.656 20.048 36.304 20.048C40.4 20.048 44.24 21.584 47.12 24.464ZM36.304 45.264C41.744 45.264 46.16 40.784 46.16 35.344C46.16 29.904 41.744 25.424 36.304 25.424C30.864 25.424 26.448 29.904 26.448 35.344C26.448 40.784 30.864 45.264 36.304 45.264ZM80.9515 24.08V20.688H86.4555V50H80.9515V46.608C78.1995 48.912 74.7435 50.64 71.0955 50.64C66.9995 50.64 63.1595 49.104 60.2155 46.224C57.3355 43.28 55.7355 39.44 55.7355 35.344C55.7355 31.248 57.3355 27.408 60.2155 24.464C63.1595 21.584 66.9995 20.048 71.0955 20.048C74.7435 20.048 78.1995 21.776 80.9515 24.08ZM71.0955 45.264C76.5355 45.264 80.9515 40.784 80.9515 35.344C80.9515 29.904 76.5355 25.424 71.0955 25.424C65.6555 25.424 61.2395 29.904 61.2395 35.344C61.2395 40.784 65.6555 45.264 71.0955 45.264ZM120.415 20.688L101.727 66.768H95.775L102.623 50L90.719 20.688H96.671L105.567 42.704L114.463 20.688H120.415ZM147.094 41.104L151.574 44.368C151.062 45.008 150.55 45.648 149.974 46.224C147.094 49.104 143.254 50.64 139.158 50.64C135.062 50.64 131.158 49.104 128.278 46.224C125.398 43.28 123.798 39.44 123.798 35.344C123.798 31.248 125.398 27.408 128.278 24.464C131.158 21.584 135.062 20.048 139.158 20.048C143.254 20.048 147.094 21.584 149.974 24.464C150.55 25.04 151.062 25.616 151.51 26.256L147.094 29.52C145.302 27.088 142.422 25.424 139.158 25.424C133.718 25.424 129.302 29.904 129.302 35.344C129.302 40.784 133.718 45.264 139.158 45.264C142.422 45.264 145.302 43.6 147.094 41.104ZM180.788 24.464C183.732 27.408 185.332 31.248 185.332 35.344C185.332 39.44 183.732 43.28 180.788 46.224C177.908 49.104 174.068 50.704 169.972 50.704C165.876 50.704 162.036 49.104 159.092 46.224C156.212 43.28 154.612 39.44 154.612 35.344C154.612 31.248 156.212 27.408 159.092 24.464C162.036 21.584 165.876 20.048 169.972 20.048C174.068 20.048 177.908 21.584 180.788 24.464ZM169.972 45.2C175.412 45.2 179.828 40.784 179.828 35.344C179.828 29.904 175.412 25.552 169.972 25.552C164.532 25.552 160.116 29.904 160.116 35.344C160.116 40.784 164.532 45.2 169.972 45.2ZM214.827 24.08V3.024H220.331V50H214.827V46.608C212.075 48.912 208.619 50.64 204.971 50.64C200.875 50.64 197.035 49.104 194.091 46.224C191.211 43.28 189.611 39.44 189.611 35.344C189.611 31.248 191.211 27.408 194.091 24.464C197.035 21.584 200.875 20.048 204.971 20.048C208.619 20.048 212.075 21.776 214.827 24.08ZM204.971 45.264C210.411 45.264 214.827 40.784 214.827 35.344C214.827 29.904 210.411 25.424 204.971 25.424C199.531 25.424 195.115 29.904 195.115 35.344C195.115 40.784 199.531 45.264 204.971 45.264ZM254.07 32.016C254.518 34.64 254.454 36.112 254.39 36.688H231.798V36.816C232.438 41.68 236.086 45.328 240.31 45.392C242.934 45.264 245.622 44.176 247.478 42.32L252.086 45.072C250.934 46.352 249.654 47.44 248.182 48.336C245.942 49.68 243.19 50.384 240.438 50.512C236.598 50.512 233.078 48.912 230.518 46.032C228.214 43.536 226.806 40.336 226.549 36.816C226.486 36.368 226.486 35.92 226.486 35.472C226.486 34.32 226.614 33.168 226.87 32.016C227.446 29.328 228.726 26.896 230.518 24.912C233.078 22.096 236.662 20.496 240.438 20.496C244.278 20.496 247.798 22.096 250.422 24.912C252.214 26.896 253.558 29.328 254.07 32.016ZM232.246 32.08H248.63L248.566 31.952C247.286 28.176 244.022 25.616 240.438 25.616C236.918 25.616 233.654 28.176 232.31 31.952L232.246 32.08Z" fill="black"/>
<path d="M55 2H2V55" stroke="black" stroke-width="4"/>
<path d="M213 66L266 66L266 13" stroke="black" stroke-width="4"/>
</svg>
